<svg xmlns="http://www.w3.org/2000/svg" width="134.93" height="136.587" viewBox="0 0 134.93 136.587">
  <g id="favicon" transform="translate(-106.4 -71.924)">
    <path id="Path_46508" data-name="Path 46508" d="M168.73,208.31a78.119,78.119,0,0,1-28.81-9.2c-.4-.21-.65-.33-.48-.16a5.37,5.37,0,0,0,1.1.71,85,85,0,0,0,13.3,5.64,74.259,74.259,0,0,0,14.56,3.17,3.92,3.92,0,0,0,1.13,0C169.63,208.44,169.22,208.36,168.73,208.31Z" fill="#ed1c24"/>
    <path id="Path_46509" data-name="Path 46509" d="M194.53,186c-.75.08-1.51.13-2.27.17s-1.53.11-2.3.14H188.8l-1.17.06-2.36.08h0a.47.47,0,0,1-.32.08h-1.06a19.858,19.858,0,0,0-2,.15c.51,0,1-.07,1.54-.09.16,0,.28,0,.27.09s-.14.11-.3.13a38.572,38.572,0,0,1-4.18.26,37.869,37.869,0,0,0-8.71,2.73.22.22,0,0,1-.15,0v-.06a32.35,32.35,0,0,1,9.54-3.17l.64-.1a13.858,13.858,0,0,0-1.92.09.87.87,0,0,1-.29.12l-.91.22c0,.05-.1.11-.23.13-.77.13-1.52.3-2.28.47h-.06a96.531,96.531,0,0,0-11,3.64.25.25,0,0,1-.16.05v-.11a24.318,24.318,0,0,1,3.94-1.89c.51-.17,1-.36,1.51-.52a15.6,15.6,0,0,1-1.55.22c-1.32.44-2.61,1-3.91,1.33h.06c-.11,0-.23.05-.25,0s.05-.11.17-.15a44.59,44.59,0,0,1,7.19-2.72c2.5-.72,5.06-1.29,7.64-1.8,1-.2,2.05-.35,3.07-.5s2.05-.22,3.09-.31c.3,0,.56,0,.56.15s-.24.22-.55.26c-1,.1-2,.21-3,.35s-2,.32-3,.51l-2.61.53c.68-.1,1.37-.19,2.06-.25a29.111,29.111,0,0,1,3.17-.5c1.29-.16,2.55-.19,3.81-.3s2.52-.16,3.84-.33a32.131,32.131,0,0,0,3.49-.58c1.1-.19,2.17-.39,3.38-.51a.34.34,0,0,1,.26,0s0,.08-.11.09c-1.17.17-2.27.36-3.39.55s-2.26.44-3.5.6a36.93,36.93,0,0,1-3.87.43c-1.28.14-2.58.18-3.9.32l-.54.06h1.75c1.12-.08,2.22-.18,3.32-.21s2.22-.09,3.35-.13c.87,0,1.73-.1,2.58-.17s1.72-.08,2.59-.09c.22,0,.42,0,.46.13A.281.281,0,0,1,194.53,186Zm-22.59,1.8c.36-.14.73-.27,1.1-.39l-2.2.6-2.2.66a29.5,29.5,0,0,0,3.3-.83Z" fill="#ed1c24"/>
    <path id="Path_46510" data-name="Path 46510" d="M169.92,187.38a13,13,0,0,0,2.48-.72h0a.17.17,0,0,0-.12,0,11.23,11.23,0,0,1-2.39.69s-.08,0-.08.05S169.88,187.39,169.92,187.38Z" fill="#ed1c24"/>
    <path id="Path_46511" data-name="Path 46511" d="M172.94,186.4a31.16,31.16,0,0,1,8.23-1.83c1.17-.13,2.32-.16,3.47-.25s2.29-.11,3.46-.24c.76-.09,1.53-.11,2.23-.26.06,0,.1,0,.07-.06a.24.24,0,0,0-.16,0c-2.94.4-6,.39-9.07.73a33.69,33.69,0,0,0-8.31,1.89s-.05,0,0,0A.26.26,0,0,0,172.94,186.4Z" fill="#ed1c24"/>
    <path id="Path_46512" data-name="Path 46512" d="M185.75,184.3c-.83.06-1.64.2-2.47.28l-2.5.22a13.34,13.34,0,0,0-2.71.4c-1.23.33-2.28.66-3.51.89h-.01c1.33-.23,2.55-.58,3.87-.89a36.392,36.392,0,0,1,3.67-.52c1.23-.09,2.44-.22,3.67-.38a.1.1,0,0,0,.09,0A.289.289,0,0,0,185.75,184.3Z" fill="#ed1c24"/>
    <path id="Path_46513" data-name="Path 46513" d="M179.06,187.51c-.9.13-1.84.28-2.75.49a15.591,15.591,0,0,0-2.5.85v.05a.3.3,0,0,0,.13,0,13.141,13.141,0,0,1,2.46-.8c.88-.18,1.79-.32,2.66-.46.09,0,.16,0,.16-.08S179.15,187.5,179.06,187.51Z" fill="#ed1c24"/>
    <path id="Path_46514" data-name="Path 46514" d="M169.6,187.83l1.28-.36,1.28-.33c.85-.22,1.7-.43,2.53-.67s1.63-.31,2.44-.48c.12,0,.21-.07.2-.11s-.11-.06-.23,0l-1.23.21v-.05c1.44-.29,2.87-.6,4.33-.8.08,0,.13,0,.13-.07s-.07,0-.15,0c-1.52.19-3,.52-4.48.85h-.19c-1.24.31-2.44.63-3.67,1-1.76.5-3.49.87-5.22,1.43-.68.23-1.33.52-2,.78a10.269,10.269,0,0,0-1.66.67,13.7,13.7,0,0,0-1.79,1.23s0,.05,0,0a.13.13,0,0,0,.11,0c.53-.43,1.16-.83,1.74-1.22,1.23-.49,2.45-.93,3.65-1.43C167.66,188.22,168.61,188.1,169.6,187.83Z" fill="#ed1c24"/>
    <path id="Path_46515" data-name="Path 46515" d="M173.44,76.39a65.111,65.111,0,0,0-13.38,1.72,4.92,4.92,0,0,0-1.07.16,69,69,0,0,0-26.4,13,70.112,70.112,0,0,0-7,6.35,65.16,65.16,0,0,1,22.08-16.48c3.25-1.51,6-2.66,5.94-3s-2.93.29-6.23,1.8a66.32,66.32,0,0,0-34.18,35,61.11,61.11,0,0,0-3.81,9.09,65,65,0,0,1,2-6.58,5.13,5.13,0,0,0,.48-1.62,4.88,4.88,0,0,0-.79,1.56,63.53,63.53,0,0,0-2.8,9.94h.53a67.563,67.563,0,0,1,2.69-8,64.48,64.48,0,0,0-2.15,8h1.46a65.25,65.25,0,0,1,10.24-23.88q1.35-2,2.84-3.8A70.66,70.66,0,0,1,144.26,84a66.9,66.9,0,0,0-10.81,7.17,64,64,0,0,0-18.61,24.88,67.341,67.341,0,0,0-2.93,8.77c-.2.8-.38,1.6-.55,2.41h1.29a59.692,59.692,0,0,1,3.54-10.31c-.45,1.14-.92,2.27-1.28,3.44l-.58,1.74-.49,1.77c-.31,1.11-.59,2.23-.83,3.36h1.39a68.66,68.66,0,0,1,6.45-15.93,62.14,62.14,0,0,1,15.18-18A13.45,13.45,0,0,0,138.6,91c0-.13-.26,0-.72.22a12.272,12.272,0,0,0-1.75,1.24,56.56,56.56,0,0,0-6.4,5.7c-.92.9-1.75,1.88-2.6,2.84A60.82,60.82,0,0,1,139.7,89.74a62.77,62.77,0,0,1,10.43-5.31,24.122,24.122,0,0,0,3.29-1.51c.1-.07.13-.12.12-.15a63.26,63.26,0,0,1,50.28,3.58,64.57,64.57,0,0,1,31.56,37.94,30.24,30.24,0,0,0,1,3h.43a20.661,20.661,0,0,0-1-4.73,60.182,60.182,0,0,0-5.93-13.3A61.25,61.25,0,0,0,221.1,97.8,64.88,64.88,0,0,0,210,88.58a68.1,68.1,0,0,0-13-6.53,64.56,64.56,0,0,0-36.83-2.38,63.06,63.06,0,0,0-31.89,18.41,68.089,68.089,0,0,0-6.3,7.4,63.741,63.741,0,0,0-5.14,8.44c.87-1.83,1.82-3.62,2.87-5.36a64.77,64.77,0,0,1,14.56-16.79,66.18,66.18,0,0,1,19-10.75,67.48,67.48,0,0,1,21.45-3.89,68.42,68.42,0,0,1,21.85,3.26A67.07,67.07,0,0,1,229,103.22a66.2,66.2,0,0,1,11.74,24h.59a68.158,68.158,0,0,0-67.89-50.83Z" fill="#ed1c24"/>
    <path id="Path_46516" data-name="Path 46516" d="M114.05,153.22c-.07-.32-.12-.65-.19-1h-1c.07.39.15.78.23,1.17a62.071,62.071,0,0,0,3.82,11.6c.48,1.39,1,2.75,1.6,4.08.69,1.53,1.45,3,2.25,4.47a63,63,0,0,1-7.76-19.3c-.16-.78-.32-1.49-.46-2h-1.75a61.63,61.63,0,0,0,3.88,13.93,65.88,65.88,0,0,1-4.14-13.93h-1.46a63.11,63.11,0,0,0,1.8,7.57,66.13,66.13,0,0,0,10.22,20.46A67.35,67.35,0,0,0,137.54,196a66.669,66.669,0,0,0,20.68,9.25,65.57,65.57,0,0,0,53.54-9.71,66.809,66.809,0,0,0,8.46-7.08,65.46,65.46,0,0,0,7.11-8.33,64.511,64.511,0,0,0,5.54-9.36c.31-.62.57-1.2.73-1.6s.18-.67.09-.63a10.11,10.11,0,0,0-1.4,2.29l.37-.52a70.06,70.06,0,0,1-14.25,18.4,65.47,65.47,0,0,1-20,12.6,73.371,73.371,0,0,1-17.26,3.37,63.119,63.119,0,0,0,17.47-4.43,60,60,0,0,0,20.51-14,61.69,61.69,0,0,0,12.76-19.9c.08-.19-.07-.08-.13-.08.2-.56.15-.67-.1-.24a11.672,11.672,0,0,0-.82,1.76,62.7,62.7,0,0,1-105.75,12.09,56.68,56.68,0,0,1-6.38-11.08,60.1,60.1,0,0,0,6.79,10.27,62.22,62.22,0,0,0,9.92,9.63,59.62,59.62,0,0,0,11.47,6.92,58.48,58.48,0,0,0,24.6,5.38c.55,0,.68-.08.26-.16a9.14,9.14,0,0,0-1.65-.16,58.511,58.511,0,0,1-23-5.6,60.14,60.14,0,0,1-31.81-36.91l-.12-.45c-.25-1.18-.47-2.37-.65-3.57q-.14-.94-.24-1.89H114A6.242,6.242,0,0,0,114.05,153.22Zm34.85,47a66.71,66.71,0,0,0,18.8,4.95,69.349,69.349,0,0,0,19.43-.56A64.93,64.93,0,0,1,137.19,194a60.772,60.772,0,0,0,11.71,6.25Z" fill="#ed1c24"/>
    <path id="Path_46517" data-name="Path 46517" d="M107,127.25a67.44,67.44,0,0,1,8.55-21.78,69.24,69.24,0,0,1,30.83-27.08,70.88,70.88,0,0,1,40.54-5.13,75.25,75.25,0,0,1,25.15,9.14c.63.37,1,.53.82.33a9.581,9.581,0,0,0-1.56-1.09,72.38,72.38,0,0,0-52.42-7.88A69.89,69.89,0,0,0,134,85.07a68.34,68.34,0,0,0-27.2,42.18Z" fill="#ed1c24"/>
    <path id="Path_46518" data-name="Path 46518" d="M134.05,195.59a66,66,0,0,1-17-17.24,66.74,66.74,0,0,1-7.6-15.09,69,69,0,0,1-2.28-11h-.39c.19,1.43.42,2.85.68,4.24-.09-.38-.2-.75-.28-1.13-.22-1-.42-2.07-.6-3.11h-.18c.19,1.13.41,2.25.65,3.37.38,1.72.85,3.41,1.36,5.08q.81,3.12,1.9,6.14a68.41,68.41,0,0,0,4.26,9.61,76.82,76.82,0,0,0,5.75,9.18,4.631,4.631,0,0,0,.73.83,3.325,3.325,0,0,0-.42-.71,74.22,74.22,0,0,1-10.11-19.19,66.31,66.31,0,0,0,24.08,29.65c.36.23.59.32.48.19A11.273,11.273,0,0,0,134.05,195.59Z" fill="#ed1c24"/>
    <path id="Path_46519" data-name="Path 46519" d="M240.1,152.25c-.07.64-.14,1.27-.23,1.91a70.149,70.149,0,0,1-2.82,11.77,69,69,0,0,1-29.49,33.93c-10.54,5.54-21.74,7.83-33.74,7.69A65.67,65.67,0,0,1,144.1,200a66.93,66.93,0,0,1-12.71-8.56,64.17,64.17,0,0,1-22-37.48c-.12-.68-.26-1.29-.38-1.73h-.32a17.6,17.6,0,0,0,.25,1.83,65.84,65.84,0,0,0,4.36,14c-.09-.12-.16-.15-.18-.1a65.88,65.88,0,0,1-4.78-15.77H108a65.66,65.66,0,0,0,5.65,17.63,20.148,20.148,0,0,0,1,2,66.58,66.58,0,0,0,13.51,17.76A67.81,67.81,0,0,0,146.75,202a69.56,69.56,0,0,0,31,6.15,66.139,66.139,0,0,0,15.61-2.39A63.53,63.53,0,0,0,208,199.78a67,67,0,0,0,19-16.37,57.33,57.33,0,0,0,13.33-31.16Z" fill="#ed1c24"/>
  </g>
</svg>
