<svg id="Layer_1" data-name="Layer 1" xmlns="http://www.w3.org/2000/svg" viewBox="0 0 165.82 136.59"><defs><style>.cls-1{fill:#ed1c24;}.cls-2{fill:#fff;}</style></defs><title>design1-forbidden-life_4s</title><path class="cls-1" d="M168.73,208.31a78.12,78.12,0,0,1-28.81-9.2c-.4-.21-.65-.33-.48-.16a5.37,5.37,0,0,0,1.1.71,85,85,0,0,0,13.3,5.64,74.26,74.26,0,0,0,14.56,3.17,3.92,3.92,0,0,0,1.13,0C169.63,208.44,169.22,208.36,168.73,208.31Z" transform="translate(-95.61 -71.92)"/><path class="cls-1" d="M194.53,186c-.75.08-1.51.13-2.27.17s-1.53.11-2.3.14l-1.16,0-1.17.06-2.36.08,0,0a.47.47,0,0,1-.32.08l-1.06,0c-.66,0-1.31.08-2,.15.51,0,1-.07,1.54-.09.16,0,.28,0,.27.09s-.14.11-.3.13a38.57,38.57,0,0,1-4.18.26,37.87,37.87,0,0,0-8.71,2.73.22.22,0,0,1-.15,0s0,0,0-.06a32.35,32.35,0,0,1,9.54-3.17l.64-.1c-.63,0-1.27,0-1.92.09a.87.87,0,0,1-.29.12l-.91.22a0,0,0,0,1,0,0c0,.05-.1.11-.23.13-.77.13-1.52.3-2.28.47h-.06a96.53,96.53,0,0,0-11,3.64.25.25,0,0,1-.16.05s0,0,0-.06,0,0,0-.05a24.32,24.32,0,0,1,3.94-1.89c.51-.17,1-.36,1.51-.52a15.6,15.6,0,0,1-1.55.22c-1.32.44-2.61,1-3.91,1.33h.06c-.11,0-.23.05-.25,0s.05-.11.17-.15a44.59,44.59,0,0,1,7.19-2.72c2.5-.72,5.06-1.29,7.64-1.8,1-.2,2.05-.35,3.07-.5s2.05-.22,3.09-.31c.3,0,.56,0,.56.15s-.24.22-.55.26c-1,.1-2,.21-3,.35s-2,.32-3,.51l-2.61.53c.68-.1,1.37-.19,2.06-.25a29.11,29.11,0,0,1,3.17-.5c1.29-.16,2.55-.19,3.81-.3s2.52-.16,3.84-.33a32.13,32.13,0,0,0,3.49-.58c1.1-.19,2.17-.39,3.38-.51a.34.34,0,0,1,.26,0s0,.08-.11.09c-1.17.17-2.27.36-3.39.55s-2.26.44-3.5.6a36.93,36.93,0,0,1-3.87.43c-1.28.14-2.58.18-3.9.32l-.54.06c.59,0,1.18,0,1.75,0,1.12-.08,2.22-.18,3.32-.21s2.22-.09,3.35-.13c.87,0,1.73-.1,2.58-.17s1.72-.08,2.59-.09c.22,0,.42,0,.46.13S194.75,186,194.53,186Zm-22.59,1.8c.36-.14.73-.27,1.1-.39l-2.2.6-2.2.66C169.74,188.49,170.86,188.15,171.94,187.84Z" transform="translate(-95.61 -71.92)"/><path class="cls-1" d="M169.92,187.38a13,13,0,0,0,2.48-.72s.06,0,0,0a.17.17,0,0,0-.12,0,11.23,11.23,0,0,1-2.39.69s-.08,0-.08.05S169.88,187.39,169.92,187.38Z" transform="translate(-95.61 -71.92)"/><path class="cls-1" d="M172.94,186.4a31.16,31.16,0,0,1,8.23-1.83c1.17-.13,2.32-.16,3.47-.25s2.29-.11,3.46-.24c.76-.09,1.53-.11,2.23-.26.06,0,.1,0,.07-.06a.24.24,0,0,0-.16,0c-2.94.4-6,.39-9.07.73a33.69,33.69,0,0,0-8.31,1.89s-.05,0,0,0A.26.26,0,0,0,172.94,186.4Z" transform="translate(-95.61 -71.92)"/><path class="cls-1" d="M185.75,184.3c-.83.06-1.64.2-2.47.28l-2.5.22a13.34,13.34,0,0,0-2.71.4c-1.23.33-2.28.66-3.51.89,0,0-.08,0-.08,0s0,0,.07,0c1.33-.23,2.55-.58,3.87-.89a36.4,36.4,0,0,1,3.67-.52c1.23-.09,2.44-.22,3.67-.38a.1.1,0,0,0,.09,0S185.8,184.29,185.75,184.3Z" transform="translate(-95.61 -71.92)"/><path class="cls-1" d="M179.06,187.51c-.9.13-1.84.28-2.75.49a15.59,15.59,0,0,0-2.5.85s0,0,0,.05a.3.3,0,0,0,.13,0,13.14,13.14,0,0,1,2.46-.8c.88-.18,1.79-.32,2.66-.46.09,0,.16,0,.16-.08S179.15,187.5,179.06,187.51Z" transform="translate(-95.61 -71.92)"/><path class="cls-1" d="M169.6,187.83l1.28-.36,1.28-.33c.85-.22,1.7-.43,2.53-.67s1.63-.31,2.44-.48c.12,0,.21-.07.2-.11s-.11-.06-.23,0l-1.23.21a0,0,0,0,0,0-.05c1.44-.29,2.87-.6,4.33-.8.08,0,.13,0,.13-.07s-.07,0-.15,0c-1.52.19-3,.52-4.48.85l-.19,0c-1.24.31-2.44.63-3.67,1-1.76.5-3.49.87-5.22,1.43-.68.23-1.33.52-2,.78a10.27,10.27,0,0,0-1.66.67,13.7,13.7,0,0,0-1.79,1.23s0,.05,0,0a.13.13,0,0,0,.11,0c.53-.43,1.16-.83,1.74-1.22,1.23-.49,2.45-.93,3.65-1.43C167.66,188.22,168.61,188.1,169.6,187.83Z" transform="translate(-95.61 -71.92)"/><path class="cls-1" d="M173.44,76.39a65.11,65.11,0,0,0-13.38,1.72,4.92,4.92,0,0,0-1.07.16,69,69,0,0,0-26.4,13,70.11,70.11,0,0,0-7,6.35,65.16,65.16,0,0,1,22.08-16.48c3.25-1.51,6-2.66,5.94-3s-2.93.29-6.23,1.8a66.32,66.32,0,0,0-34.18,35,61.11,61.11,0,0,0-3.81,9.09,65,65,0,0,1,2-6.58,5.13,5.13,0,0,0,.48-1.62,4.88,4.88,0,0,0-.79,1.56,63.53,63.53,0,0,0-2.8,9.94h.53a67.56,67.56,0,0,1,2.69-8,64.48,64.48,0,0,0-2.15,8h1.46a65.25,65.25,0,0,1,10.24-23.88q1.35-2,2.84-3.8A70.66,70.66,0,0,1,144.26,84a66.9,66.9,0,0,0-10.81,7.17,64,64,0,0,0-18.61,24.88,67.34,67.34,0,0,0-2.93,8.77c-.2.8-.38,1.6-.55,2.41h1.29a59.69,59.69,0,0,1,3.54-10.31c-.45,1.14-.92,2.27-1.28,3.44l-.58,1.74-.49,1.77c-.31,1.11-.59,2.23-.83,3.36h1.39a68.66,68.66,0,0,1,6.45-15.93,62.14,62.14,0,0,1,15.18-18A13.45,13.45,0,0,0,138.6,91c0-.13-.26,0-.72.22s-1.08.72-1.75,1.24a56.56,56.56,0,0,0-6.4,5.7c-.92.9-1.75,1.88-2.6,2.84A60.82,60.82,0,0,1,139.7,89.74a62.77,62.77,0,0,1,10.43-5.31,24.12,24.12,0,0,0,3.29-1.51c.1-.07.13-.12.12-.15a63.26,63.26,0,0,1,50.28,3.58,64.57,64.57,0,0,1,31.56,37.94c.39,1.31.72,2.36,1,3h.43a20.66,20.66,0,0,0-1-4.73,60.18,60.18,0,0,0-5.93-13.3,61.25,61.25,0,0,0-8.78-11.46A64.88,64.88,0,0,0,210,88.58a68.1,68.1,0,0,0-13-6.53,64.56,64.56,0,0,0-36.83-2.38,63.06,63.06,0,0,0-31.89,18.41,68.09,68.09,0,0,0-6.3,7.4,63.74,63.74,0,0,0-5.14,8.44c.87-1.83,1.82-3.62,2.87-5.36a64.77,64.77,0,0,1,14.56-16.79,66.18,66.18,0,0,1,19-10.75,67.48,67.48,0,0,1,21.45-3.89,68.42,68.42,0,0,1,21.85,3.26A67.07,67.07,0,0,1,229,103.22a66.2,66.2,0,0,1,11.74,24h.59a67.42,67.42,0,0,0-3-9.11,68,68,0,0,0-42.9-38.74A67.21,67.21,0,0,0,173.44,76.39Z" transform="translate(-95.61 -71.92)"/><path class="cls-1" d="M114.05,153.22c-.07-.32-.12-.65-.19-1h-1c.07.39.15.78.23,1.17a62.07,62.07,0,0,0,3.82,11.6c.48,1.39,1,2.75,1.6,4.08.69,1.53,1.45,3,2.25,4.47A63,63,0,0,1,113,154.24c-.16-.78-.32-1.49-.46-2h-1.75a61.63,61.63,0,0,0,3.88,13.93,65.88,65.88,0,0,1-4.14-13.93h-1.46a63.11,63.11,0,0,0,1.8,7.57,66.13,66.13,0,0,0,10.22,20.46A67.35,67.35,0,0,0,137.54,196a66.67,66.67,0,0,0,20.68,9.25,65.57,65.57,0,0,0,53.54-9.71,66.81,66.81,0,0,0,8.46-7.08,65.46,65.46,0,0,0,7.11-8.33,64.51,64.51,0,0,0,5.54-9.36c.31-.62.57-1.2.73-1.6s.18-.67.09-.63a10.11,10.11,0,0,0-1.4,2.29l.37-.52a70.06,70.06,0,0,1-14.25,18.4,65.47,65.47,0,0,1-20,12.6,73.37,73.37,0,0,1-17.26,3.37,63.12,63.12,0,0,0,17.47-4.43,60,60,0,0,0,20.51-14,61.69,61.69,0,0,0,12.76-19.9c.08-.19-.07-.08-.13-.08.2-.56.15-.67-.1-.24a11.67,11.67,0,0,0-.82,1.76,62.86,62.86,0,0,1-34.56,31.79,63,63,0,0,1-71.19-19.7,56.68,56.68,0,0,1-6.38-11.08,60.1,60.1,0,0,0,6.79,10.27,62.22,62.22,0,0,0,9.92,9.63,59.62,59.62,0,0,0,11.47,6.92A58.48,58.48,0,0,0,171.49,201c.55,0,.68-.08.26-.16a9.14,9.14,0,0,0-1.65-.16,58.51,58.51,0,0,1-23-5.6,60.14,60.14,0,0,1-31.81-36.91l-.12-.45c-.25-1.18-.47-2.37-.65-3.57q-.14-.94-.24-1.89H114C114,152.57,114,152.9,114.05,153.22Zm34.85,47a66.71,66.71,0,0,0,18.8,4.95,69.35,69.35,0,0,0,19.43-.56A64.93,64.93,0,0,1,137.19,194,60.77,60.77,0,0,0,148.9,200.25Z" transform="translate(-95.61 -71.92)"/><path class="cls-1" d="M107,127.25a67.44,67.44,0,0,1,8.55-21.78,69.24,69.24,0,0,1,30.83-27.08,70.88,70.88,0,0,1,40.54-5.13,75.25,75.25,0,0,1,25.15,9.14c.63.37,1,.53.82.33a9.58,9.58,0,0,0-1.56-1.09,72.38,72.38,0,0,0-52.42-7.88A69.89,69.89,0,0,0,134,85.07a68.34,68.34,0,0,0-27.2,42.18Z" transform="translate(-95.61 -71.92)"/><path class="cls-1" d="M134.05,195.59a66,66,0,0,1-17-17.24,66.74,66.74,0,0,1-7.6-15.09,69,69,0,0,1-2.28-11h-.39c.19,1.43.42,2.85.68,4.24-.09-.38-.2-.75-.28-1.13-.22-1-.42-2.07-.6-3.11h-.18c.19,1.13.41,2.25.65,3.37.38,1.72.85,3.41,1.36,5.08q.81,3.12,1.9,6.14a68.41,68.41,0,0,0,4.26,9.61,76.82,76.82,0,0,0,5.75,9.18,4.63,4.63,0,0,0,.73.83s-.12-.31-.42-.71a74.22,74.22,0,0,1-10.11-19.19,66.31,66.31,0,0,0,24.08,29.65c.36.23.59.32.48.19A11.27,11.27,0,0,0,134.05,195.59Z" transform="translate(-95.61 -71.92)"/><path class="cls-1" d="M240.1,152.25c-.07.64-.14,1.27-.23,1.91a70.15,70.15,0,0,1-2.82,11.77,69,69,0,0,1-29.49,33.93c-10.54,5.54-21.74,7.83-33.74,7.69A65.67,65.67,0,0,1,144.1,200a66.93,66.93,0,0,1-12.71-8.56,64.17,64.17,0,0,1-22-37.48c-.12-.68-.26-1.29-.38-1.73h-.32a17.6,17.6,0,0,0,.25,1.83,65.84,65.84,0,0,0,4.36,14c-.09-.12-.16-.15-.18-.1a65.88,65.88,0,0,1-4.78-15.77H108a65.66,65.66,0,0,0,5.65,17.63,20.15,20.15,0,0,0,1,2,66.58,66.58,0,0,0,13.51,17.76,67.81,67.81,0,0,0,18.59,12.42,69.56,69.56,0,0,0,31,6.15,66.14,66.14,0,0,0,15.61-2.39A63.53,63.53,0,0,0,208,199.78a67,67,0,0,0,19-16.37,57.33,57.33,0,0,0,13.33-31.16Z" transform="translate(-95.61 -71.92)"/><path class="cls-2" d="M147.84,107.93a3.34,3.34,0,0,1-1.17-2.42,2.6,2.6,0,0,1,.64-1.76,4.27,4.27,0,0,1,3.44-1.44h11.3a9.91,9.91,0,0,0,1.85-.18,5.39,5.39,0,0,0,1-.25v4.18h-.24v-.29a2.31,2.31,0,0,0-2.4-2.45H159v14.09a1.5,1.5,0,0,0,.79,1.3,1.54,1.54,0,0,0,.74.19h.31v.24h-7.29v-.24h.31a1.51,1.51,0,0,0,1.07-.43,1.54,1.54,0,0,0,.47-1V103.32h-4.68a3.9,3.9,0,0,0-1.73.36,2.36,2.36,0,0,0-1.51,2.26,3.65,3.65,0,0,0,.57,1.87Z" transform="translate(-95.61 -71.92)"/><path class="cls-2" d="M177.75,118.9a1.57,1.57,0,0,0,1.08-.43,1.52,1.52,0,0,0,.48-1.06v-6.12h-7.56v6.17a6.76,6.76,0,0,1-1.47,4.58,4.11,4.11,0,0,1-3.31,1.35,7.59,7.59,0,0,1-1.51-.17l-.05-.24a3.78,3.78,0,0,0,2.28-2.21,10,10,0,0,0,.46-3.31V104.07a1.55,1.55,0,0,0-.47-1.06,1.47,1.47,0,0,0-1.07-.43h-.31v-.24h7.29v.24h-.31a1.4,1.4,0,0,0-1.29.72,1.43,1.43,0,0,0-.24.77v6.19h7.56V104.5a5.87,5.87,0,0,1,1.75-4.47,4.79,4.79,0,0,1,3.5-1.36,7.15,7.15,0,0,1,1,.07l.05.24a3.43,3.43,0,0,0-2.28,2.21,11.07,11.07,0,0,0-.46,3.31v12.89a1.57,1.57,0,0,0,1.56,1.51h.29v.24h-7.27v-.24Z" transform="translate(-95.61 -71.92)"/><path class="cls-2" d="M187,118.9a1.43,1.43,0,0,0,1.06-.45,1.49,1.49,0,0,0,.47-1.06V104a1.5,1.5,0,0,0-.79-1.25,1.54,1.54,0,0,0-.74-.19h-.32v-.24h6.75a9.18,9.18,0,0,0,1.85-.17,8.88,8.88,0,0,0,1-.26v4.2H196v-.29a2.28,2.28,0,0,0-.61-1.74,2.4,2.4,0,0,0-1.71-.71h-1.59v7h3.82a2,2,0,0,0,1.46-.61,2,2,0,0,0,.58-1.45v-.22h.21v5.55H198v-.19a2,2,0,0,0-.58-1.47,2.06,2.06,0,0,0-1.44-.6h-3.84v6.75h4.68a4.39,4.39,0,0,0,2.94-1,6,6,0,0,0,1.77-2.86h.24l-1.13,4.9h-14v-.24Z" transform="translate(-95.61 -71.92)"/><path class="cls-2" d="M101.05,140.16v6a1.44,1.44,0,0,0,.46,1.06,1.47,1.47,0,0,0,1.08.45h.29l0,.24H95.61v-.24h.31a1.47,1.47,0,0,0,1.07-.45,1.52,1.52,0,0,0,.46-1.06V132.82a1.5,1.5,0,0,0-.49-1,1.45,1.45,0,0,0-1-.42h-.31v-.24h9.19a9.18,9.18,0,0,0,1.85-.17,8.88,8.88,0,0,0,1-.26v4h-.24v-.24a2.14,2.14,0,0,0-1.08-2,2.66,2.66,0,0,0-1.2-.31h-4.11v7H108a2,2,0,0,0,2-2.06v-.22h.24v5.55H110v-.19a2,2,0,0,0-2-2.07Z" transform="translate(-95.61 -71.92)"/><path class="cls-2" d="M119.1,137.21a4,4,0,0,1-.43-1.74,5.12,5.12,0,0,1,.22-1.54,4.51,4.51,0,0,1,.72-1.39A3.89,3.89,0,0,1,121,131.4a6.45,6.45,0,0,1,3-.65,8.74,8.74,0,0,1,4.37,1.18,8.24,8.24,0,0,1,3.77,4.25,8.42,8.42,0,0,1,.6,3.19,8.09,8.09,0,0,1-2.89,6.46,12.9,12.9,0,0,1-15.1,0,8,8,0,0,1-2.92-6.44,8.24,8.24,0,0,1,1.7-5.17,8.4,8.4,0,0,1,4.57-3l.14.22a6.41,6.41,0,0,0-1.85,3,14.51,14.51,0,0,0-.62,4.3,9.78,9.78,0,0,0,1.8,6.19,5.69,5.69,0,0,0,4.72,2.31,5.79,5.79,0,0,0,4.7-2.18,8.74,8.74,0,0,0,1.79-5.74,10.93,10.93,0,0,0-.66-3.9,5.91,5.91,0,0,0-1.91-2.69,4.5,4.5,0,0,0-2.78-.95,4.14,4.14,0,0,0-2.76.89,4.06,4.06,0,0,0-1.49,3.24,4.73,4.73,0,0,0,.17,1.27Z" transform="translate(-95.61 -71.92)"/><path class="cls-2" d="M159.21,152a8.86,8.86,0,0,1-4,.93,9.76,9.76,0,0,1-3.41-.57,11.68,11.68,0,0,1-5.64-4.78c-.4-.57-1.14-1.68-2.23-3.31s-1.79-2.67-2.11-3.12c-.56-.88-1-1.36-1.34-1.44v-.24H141a4.68,4.68,0,0,0,2.25-.55,3.32,3.32,0,0,0,1.56-3.19,3.47,3.47,0,0,0-1-2.63,3.19,3.19,0,0,0-2.3-.93h-1.83v14a1.44,1.44,0,0,0,.46,1.06,1.47,1.47,0,0,0,1.08.45h.31v.24h-7.29v-.24h.31a1.5,1.5,0,0,0,1.05-.43,1.44,1.44,0,0,0,.48-1.06V132.89a1.54,1.54,0,0,0-.46-1.07,1.5,1.5,0,0,0-1.07-.44h-.31v-.24h8.23a7.34,7.34,0,0,1,4.8,1.41,3.84,3.84,0,0,1,1.34,3.12,4.32,4.32,0,0,1-1.31,3.28,4.17,4.17,0,0,1-3,1.26l-.32,0a7.1,7.1,0,0,1,1.65,1.17c.44.43.82.84,1.15,1.23s.61.72.84,1l.92,1.17,1.2,1.53q.63.78,1.38,1.62a16.83,16.83,0,0,0,1.68,1.57,11,11,0,0,0,1.89,1.22,10,10,0,0,0,4.49,1.06Z" transform="translate(-95.61 -71.92)"/><path class="cls-2" d="M164.29,135.27a3.71,3.71,0,0,1-.56,2,3,3,0,0,1-1.45,1.23,4.71,4.71,0,0,1,4.05,2.18,4.64,4.64,0,0,1,.65,2.54,4,4,0,0,1-1.16,2.76,6.4,6.4,0,0,1-3,1.78,13.45,13.45,0,0,1-3.79.53q-5,0-7.1-2.64a7,7,0,0,1-1.37-4.54c0-.32,0-.64,0-1l.24,0q.17,4.13,3,5.9V132.87a1.42,1.42,0,0,0-.79-1.3,1.47,1.47,0,0,0-.75-.19H152v-.24h6.1a8.44,8.44,0,0,1,4.44,1.07A3.38,3.38,0,0,1,164.29,135.27Zm-6.19,11.9a4.89,4.89,0,0,0,3.49-1.18,4,4,0,0,0,1.26-3.09,4.2,4.2,0,0,0-.44-2,3.1,3.1,0,0,0-1.16-1.24,5.79,5.79,0,0,0-3-.79v-.21a1.71,1.71,0,0,0,1.29-.56,3.62,3.62,0,0,0,.91-2.61,3.5,3.5,0,0,0-.73-2.45,3.1,3.1,0,0,0-2.29-.84v15Z" transform="translate(-95.61 -71.92)"/><path class="cls-2" d="M176.7,147.7H177v.24h-7.29v-.24H170a1.45,1.45,0,0,0,1.07-.45,1.57,1.57,0,0,0,.47-1.06V132.12l-2.28.1c-1.51.06-2.26.62-2.26,1.68a1.51,1.51,0,0,0,.44,1.09,1.67,1.67,0,0,0,1.24.44h.14v.15a2.61,2.61,0,0,1-.81.17,2,2,0,0,1-1.66-.77,1.92,1.92,0,0,1-.41-1.2,2.15,2.15,0,0,1,.83-1.74,4.46,4.46,0,0,1,2.56-.81l2-.09a42.66,42.66,0,0,0,5.64-.48l.05.24a2.23,2.23,0,0,0-1.45.69,2.56,2.56,0,0,0-.44,1.56v13a1.52,1.52,0,0,0,.46,1.06A1.47,1.47,0,0,0,176.7,147.7Z" transform="translate(-95.61 -71.92)"/><path class="cls-2" d="M182.92,131.11h1.49l4,0a9.74,9.74,0,0,1,6.72,2.29,8.8,8.8,0,0,1,0,12.25,9.54,9.54,0,0,1-6.72,2.26H179.7v-.24H180a1.49,1.49,0,0,0,1.05-.42,1.54,1.54,0,0,0,.49-1v-14a7,7,0,0,0-4,1.25,4.5,4.5,0,0,0-1,1,8.54,8.54,0,0,0-.74,1.27l-.24-.1a5.17,5.17,0,0,1,2.42-3.46A9.86,9.86,0,0,1,182.92,131.11Zm9.27,13.83a8.78,8.78,0,0,0,1.5-5.4,8.68,8.68,0,0,0-1.5-5.38,4.8,4.8,0,0,0-4-2h-3v14.74h3A4.8,4.8,0,0,0,192.19,144.94Z" transform="translate(-95.61 -71.92)"/><path class="cls-2" d="M203.61,131.11h1.48l4,0a9.77,9.77,0,0,1,6.72,2.29,8.83,8.83,0,0,1,0,12.25,9.57,9.57,0,0,1-6.72,2.26h-8.71v-.24h.31a1.49,1.49,0,0,0,1.05-.42,1.54,1.54,0,0,0,.49-1v-14a7.08,7.08,0,0,0-4,1.25,4.94,4.94,0,0,0-1,1,9.54,9.54,0,0,0-.73,1.27l-.24-.1a5.19,5.19,0,0,1,2.41-3.46A9.93,9.93,0,0,1,203.61,131.11Zm9.27,13.83a8.78,8.78,0,0,0,1.5-5.4,8.68,8.68,0,0,0-1.5-5.38,4.8,4.8,0,0,0-4-2h-3v14.74h3A4.81,4.81,0,0,0,212.88,144.94Z" transform="translate(-95.61 -71.92)"/><path class="cls-2" d="M220.17,147.7a1.43,1.43,0,0,0,1.06-.45,1.49,1.49,0,0,0,.47-1.06V132.82a1.5,1.5,0,0,0-.79-1.25,1.54,1.54,0,0,0-.74-.19h-.32v-.24h6.75a9.18,9.18,0,0,0,1.85-.17,8.88,8.88,0,0,0,1-.26v4.2h-.27v-.29a2.28,2.28,0,0,0-.61-1.74,2.4,2.4,0,0,0-1.71-.71H225.3v7h3.82a2,2,0,0,0,1.46-.61,2,2,0,0,0,.58-1.45v-.22h.21v5.55h-.21v-.19a2,2,0,0,0-.58-1.47,2.06,2.06,0,0,0-1.44-.6H225.3v6.75H230a4.39,4.39,0,0,0,2.94-1,6,6,0,0,0,1.77-2.86h.24l-1.13,4.9h-14v-.24Z" transform="translate(-95.61 -71.92)"/><path class="cls-2" d="M257.26,150.45a7.61,7.61,0,0,0,.9.43,5.58,5.58,0,0,0,1,.29,6.53,6.53,0,0,0,1,.08,5.41,5.41,0,0,0,1.17-.14l.09.24a6.22,6.22,0,0,1-2.71.64c-2.1,0-4.23-1.16-6.41-3.48l-11.38-12.07v9.82a1.37,1.37,0,0,0,.44,1,1.43,1.43,0,0,0,1,.42h.45v.24h-7.27v-.24H236a1.46,1.46,0,0,0,1.06-.42,1.4,1.4,0,0,0,.43-1.05V132.77a22.93,22.93,0,0,0-1.77-1.88c-.4-.36-.76-.66-1.07-.9a7,7,0,0,0-.9-.6,5.2,5.2,0,0,0-1.62-.68,7.93,7.93,0,0,0-1.15-.09,3.72,3.72,0,0,0-1.17.21l-.09-.24a5.33,5.33,0,0,1,2.71-.76c2,0,4.15,1.2,6.41,3.6l10.73,11.4v-10a1.5,1.5,0,0,0-.46-1,1.43,1.43,0,0,0-1-.42h-.43v-.24h7.27v.24h-.46a1.43,1.43,0,0,0-1,.42,1.47,1.47,0,0,0-.46,1v13.65l.39.39c.09.09.24.26.44.49l.54.6.61.64c.25.25.48.48.7.67s.47.4.77.62A7.35,7.35,0,0,0,257.26,150.45Z" transform="translate(-95.61 -71.92)"/><path class="cls-2" d="M169.2,180.07a7.31,7.31,0,0,0,4-1l.17.19a7.07,7.07,0,0,1-5.13,3.17,10,10,0,0,1-1.12.07l-1.08,0a10.54,10.54,0,0,1-1.72-.33c-.73-.19-1.38-.39-1.94-.59s-1.21-.46-1.94-.79-1.35-.61-1.83-.86l-1.71-.89-1.74-.88c-.5-.24-1-.44-1.44-.62a10.72,10.72,0,0,0-4-.79v-.24H150a1.54,1.54,0,0,0,1.53-1.51v-13.3a1.5,1.5,0,0,0-.47-1.08,1.45,1.45,0,0,0-1.06-.43h-.32v-.24H157l0,.24h-.24a1.51,1.51,0,0,0-1.37.74,1.36,1.36,0,0,0-.22.77v13.92a1.52,1.52,0,0,0,.31,1.09,1.75,1.75,0,0,0,.7.42Q165.2,180.08,169.2,180.07Z" transform="translate(-95.61 -71.92)"/><path class="cls-2" d="M168.65,176.5H169v.24h-7.29v-.24H162a1.43,1.43,0,0,0,1.06-.45,1.49,1.49,0,0,0,.47-1.06V160.92l-2.28.1q-2.25.09-2.25,1.68a1.51,1.51,0,0,0,.44,1.09,1.67,1.67,0,0,0,1.24.44h.14v.15a2.61,2.61,0,0,1-.81.17,2,2,0,0,1-1.66-.77,1.92,1.92,0,0,1-.41-1.2,2.15,2.15,0,0,1,.83-1.74,4.43,4.43,0,0,1,2.56-.81l2-.09a43,43,0,0,0,5.64-.48l0,.24a2.23,2.23,0,0,0-1.45.69,2.63,2.63,0,0,0-.45,1.56v13a1.53,1.53,0,0,0,.47,1.06A1.45,1.45,0,0,0,168.65,176.5Z" transform="translate(-95.61 -71.92)"/><path class="cls-2" d="M176.16,169v6a1.4,1.4,0,0,0,.46,1.06,1.47,1.47,0,0,0,1.08.45H178l0,.24h-7.3v-.24H171a1.44,1.44,0,0,0,1.07-.45,1.53,1.53,0,0,0,.47-1.06V161.62a1.54,1.54,0,0,0-.49-1,1.49,1.49,0,0,0-1-.42h-.31v-.24h9.2a9.08,9.08,0,0,0,1.84-.17,8.67,8.67,0,0,0,1-.26v4.05h-.25v-.24a2.12,2.12,0,0,0-1.08-2,2.59,2.59,0,0,0-1.2-.31h-4.1v7h6.91a2,2,0,0,0,1.47-.61,2,2,0,0,0,.57-1.45v-.22h.24v5.55h-.24V171a2,2,0,0,0-2-2.07Z" transform="translate(-95.61 -71.92)"/><path class="cls-2" d="M186.72,176.5a1.45,1.45,0,0,0,1.07-.45,1.57,1.57,0,0,0,.47-1.06V161.62a1.5,1.5,0,0,0-.79-1.25,1.55,1.55,0,0,0-.75-.19h-.31v-.24h6.74a9.11,9.11,0,0,0,1.85-.17,8.34,8.34,0,0,0,1-.26v4.2h-.26v-.29a2.32,2.32,0,0,0-.61-1.74,2.44,2.44,0,0,0-1.72-.71h-1.58v7h3.81a2.05,2.05,0,0,0,1.47-.61,2,2,0,0,0,.57-1.45v-.22h.22v5.55h-.22V171a2,2,0,0,0-.57-1.47,2.1,2.1,0,0,0-1.44-.6h-3.84v6.75h4.68a4.39,4.39,0,0,0,2.94-1,6,6,0,0,0,1.76-2.86h.24l-1.13,4.9H186.41v-.24Z" transform="translate(-95.61 -71.92)"/></svg>